<?xml version="1.0" encoding="utf-8"?>
<svg xmlns="http://www.w3.org/2000/svg" style="margin: auto; background: none; display: block; shape-rendering: auto;" width="286" height="58" preserveAspectRatio="xMidYMid">
<style type="text/css">
  text {
    text-anchor: middle; font-size: 46px; opacity: 0;
  }
</style>
<g style="transform-origin: 143px 29px; transform: scale(0.575);">
<g transform="translate(143,29)">
  <g transform="translate(0,0)"><g class="path" style="transform: matrix(1, 0, 0, 1, 0, 0); transform-origin: -201.44px 2.88437px; animation: 16.6667s linear -10s infinite normal forwards running tremble-7c2820ce-8870-4615-83a6-aca02bae78dd;"><path d="M13.52 5.76L13.52 5.76Q10.96 3.36 8.64 2.12L8.64 2.12L8.64 2.12Q6.32 0.88 3 0.88L3 0.88L3 0.88Q-0.32 0.88-2.28 2.12L-2.28 2.12L-2.28 2.12Q-4.24 3.36-4.24 5.64L-4.24 5.64L-4.24 5.64Q-4.24 7.92-1.64 9.32L-1.64 9.32L-1.64 9.32Q0.96 10.72 4.48 10.72L4.48 10.72L4.48 10.72Q8 10.72 10.72 10.08L10.72 10.08L10.72 10.08Q12.32 8.64 13.52 5.76L13.52 5.76zM27.04 13.88L27.04 13.88L27.04 13.88Q28.40 14.32 29.92 14.48L29.92 14.48L29.92 14.48Q31.44 14.64 33.96 14.64L33.96 14.64L33.96 14.64Q36.48 14.64 39.12 13.28L39.12 13.28L39.12 13.28Q41.76 11.92 43.32 10.12L43.32 10.12L43.32 10.12Q44.88 8.32 46.08 6.08L46.08 6.08L46.08 6.08Q47.60 3.44 48.32 0.80L48.32 0.80L50.24 1.44L50.24 1.44Q48.16 8.24 43.64 12.24L43.64 12.24L43.64 12.24Q39.12 16.24 33.12 16.24L33.12 16.24L33.12 16.24Q28.40 16.24 26.60 15.56L26.60 15.56L26.60 15.56Q24.80 14.88 24 14.68L24 14.68L24 14.68Q23.20 14.48 21.88 13.48L21.88 13.48L21.88 13.48Q20.56 12.48 20.32 12.32L20.32 12.32L20.32 12.32Q19.68 11.84 17.04 9.20L17.04 9.20L17.04 9.20Q11.92 12.24 6 12.24L6 12.24L6 12.24Q0.08 12.24-3.04 10.36L-3.04 10.36L-3.04 10.36Q-6.16 8.48-6.16 5.64L-6.16 5.64L-6.16 5.64Q-6.16 2.80-3.88 1.08L-3.88 1.08L-3.88 1.08Q-1.60-0.64 2.96-0.64L2.96-0.64L2.96-0.64Q9.20-0.64 14.16 4L14.16 4L14.16 4Q15.12 1.04 15.76-2.56L15.76-2.56L21.12-33.52L21.12-33.52Q23.04-45.52 29.44-49.68L29.44-49.68L29.44-49.68Q35.04-53.28 42.16-53.28L42.16-53.28L42.16-53.28Q49.28-53.28 53.80-49.20L53.80-49.20L53.80-49.20Q58.32-45.12 58.32-36.32L58.32-36.32L56.40-36.32L56.40-36.32Q56.40-43.44 53-47.16L53-47.16L53-47.16Q49.60-50.88 44.40-50.88L44.40-50.88L44.40-50.88Q34.88-50.88 33.12-39.04L33.12-39.04L33.12-39.04Q33.12-37.76 31.08-25.88L31.08-25.88L31.08-25.88Q29.04-14 27.44-6.24L27.44-6.24L27.44-6.24Q25.76 3.12 18.48 8.24L18.48 8.24L18.48 8.24Q22.80 12.56 24.88 13.20L24.88 13.20L24.88 13.20Q25.68 13.44 27.04 13.88" fill="#00599e" stroke="none" stroke-width="none" transform="translate(-227.51997756958008,21.404364835565737)" style="fill: rgb(0, 89, 158);"></path></g><g class="path" style="transform: matrix(1, 0, 0, 1, 0, 0); transform-origin: -157.04px 6.20436px; animation: 16.6667s linear -9s infinite normal forwards running tremble-7c2820ce-8870-4615-83a6-aca02bae78dd;"><path d="M74-31.12L74-31.12L74-31.12Q84.16-31.12 84.16-23.04L84.16-23.04L84.16-23.04Q84.16-18 79.40-15.40L79.40-15.40L79.40-15.40Q74.64-12.80 65.84-12.72L65.84-12.72L65.84-12.72Q65.68-9.84 65.68-8.16L65.68-8.16L65.68-8.16Q65.68-4.56 67.32-2.84L67.32-2.84L67.32-2.84Q68.96-1.12 71.44-1.12L71.44-1.12L71.44-1.12Q73.92-1.12 75.96-2.08L75.96-2.08L75.96-2.08Q78-3.04 79.20-4.36L79.20-4.36L79.20-4.36Q80.40-5.68 81.28-7.12L81.28-7.12L81.28-7.12Q82.88-9.76 82.88-10.48L82.88-10.48L84.32-9.84L84.32-9.84Q84.08-8.56 82.88-6.44L82.88-6.44L82.88-6.44Q81.68-4.32 80.24-2.96L80.24-2.96L80.24-2.96Q78.80-1.60 76-0.44L76-0.44L76-0.44Q73.20 0.72 69.76 0.72L69.76 0.72L69.76 0.72Q63.28 0.72 59.96-2.36L59.96-2.36L59.96-2.36Q56.64-5.44 56.64-10.80L56.64-10.80L56.64-10.80Q56.64-20.32 61.36-25.72L61.36-25.72L61.36-25.72Q66.08-31.12 74-31.12zM82.16-23.04L82.16-23.04Q82.16-25.68 80.60-27.40L80.60-27.40L80.60-27.40Q79.04-29.12 75.96-29.12L75.96-29.12L75.96-29.12Q72.88-29.12 69.96-25.44L69.96-25.44L69.96-25.44Q67.04-21.76 66.08-14.56L66.08-14.56L66.08-14.56Q82.16-14.64 82.16-23.04L82.16-23.04" fill="#00599e" stroke="none" stroke-width="none" transform="translate(-227.51997756958008,21.404364835565737)" style="fill: rgb(231, 120, 23);"></path></g><g class="path" style="transform: matrix(1, 0, 0, 1, 0, 0); transform-origin: -121.76px 6.20436px; animation: 16.6667s linear -8s infinite normal forwards running tremble-7c2820ce-8870-4615-83a6-aca02bae78dd;"><path d="M116.72 0.72L116.72 0.72L116.72 0.72Q109.68 0.72 109.04-5.44L109.04-5.44L109.04-5.44Q105.52 0.72 100.16 0.72L100.16 0.72L100.16 0.72Q94.80 0.72 91.64-2.52L91.64-2.52L91.64-2.52Q88.48-5.76 88.48-11.60L88.48-11.60L88.48-11.60Q88.48-20.72 92.96-25.92L92.96-25.92L92.96-25.92Q97.44-31.12 104.56-31.12L104.56-31.12L104.56-31.12Q110.40-31.12 112.32-25.60L112.32-25.60L112.32-25.60Q112.72-28 113.20-30.40L113.20-30.40L113.20-30.40Q119.12-30.40 122-30.88L122-30.88L123.04-31.12L117.52-0.88L117.52-0.88Q119.92-1.12 121.52-3.12L121.52-3.12L122.72-2.16L122.72-2.16Q120.32 0.72 116.72 0.72zM97.52-7.52L97.52-7.52Q97.52-3.92 98.44-2.52L98.44-2.52L98.44-2.52Q99.36-1.12 101.28-1.12L101.28-1.12L101.28-1.12Q103.20-1.12 105.20-3.20L105.20-3.20L105.20-3.20Q107.84-5.92 109.44-10.08L109.44-10.08L109.44-10.08Q109.68-11.12 110.36-15.08L110.36-15.08L110.36-15.08Q111.04-19.04 111.52-21.60L111.52-21.60L111.52-21.60Q111.28-24.64 109.84-26.88L109.84-26.88L109.84-26.88Q108.40-29.12 106.24-29.12L106.24-29.12L106.24-29.12Q102.32-29.12 99.92-22.12L99.92-22.12L99.92-22.12Q97.52-15.12 97.52-7.52L97.52-7.52" fill="#00599e" stroke="none" stroke-width="none" transform="translate(-227.51997756958008,21.404364835565737)" style="fill: rgb(0, 89, 158);"></path></g><g class="path" style="transform: matrix(1, 0, 0, 1, 0, 0); transform-origin: -82.2px -4.15563px; animation: 16.6667s linear -7s infinite normal forwards running tremble-7c2820ce-8870-4615-83a6-aca02bae78dd;"><path d="M154.96 0.72L154.96 0.72L154.96 0.72Q147.92 0.72 147.28-5.28L147.28-5.28L147.28-5.28Q143.76 0.72 138.32 0.72L138.32 0.72L138.32 0.72Q132.88 0.72 130-2.36L130-2.36L130-2.36Q127.12-5.44 127.12-10.80L127.12-10.80L127.12-10.80Q127.12-20.24 131.60-25.68L131.60-25.68L131.60-25.68Q136.08-31.12 143.20-31.12L143.20-31.12L143.20-31.12Q147.28-31.12 149.52-28.64L149.52-28.64L149.52-28.64Q150.48-27.36 150.72-26.72L150.72-26.72L155.04-50.24L155.04-50.24Q152.64-50 151.04-48L151.04-48L149.84-48.96L149.84-48.96Q152.24-51.84 155.88-51.84L155.88-51.84L155.88-51.84Q159.52-51.84 161.52-50L161.52-50L161.52-50Q163.52-48.16 163.52-44.80L163.52-44.80L163.52-44.80Q163.52-44.16 163.36-42.72L163.36-42.72L163.36-42.72Q159.44-20.72 155.76-0.88L155.76-0.88L155.76-0.88Q158.16-1.12 159.76-3.12L159.76-3.12L160.96-2.16L160.96-2.16Q158.56 0.72 154.96 0.72zM136.16-7.52L136.16-7.52Q136.16-3.84 136.92-2.48L136.92-2.48L136.92-2.48Q137.68-1.12 139.32-1.12L139.32-1.12L139.32-1.12Q140.96-1.12 142.48-2.24L142.48-2.24L142.48-2.24Q144-3.36 145.04-5.12L145.04-5.12L145.04-5.12Q146.96-8.08 147.76-10.16L147.76-10.16L150.08-22.80L150.08-22.80Q149.92-25.36 148.40-27.48L148.40-27.48L148.40-27.48Q146.88-29.60 143.20-29.60L143.20-29.60L143.20-29.60Q140.64-29.60 138.40-22.08L138.40-22.08L138.40-22.08Q136.16-14.56 136.16-7.52L136.16-7.52" fill="#00599e" stroke="none" stroke-width="none" transform="translate(-227.51997756958008,21.404364835565737)" style="fill: rgb(231, 120, 23);"></path></g><g class="path" style="transform: matrix(1, 0, 0, 1, 0, 0); transform-origin: -48.08px 6.20436px; animation: 16.6667s linear -6s infinite normal forwards running tremble-7c2820ce-8870-4615-83a6-aca02bae78dd;"><path d="M182.96-31.12L182.96-31.12L182.96-31.12Q193.12-31.12 193.12-23.04L193.12-23.04L193.12-23.04Q193.12-18 188.36-15.40L188.36-15.40L188.36-15.40Q183.60-12.80 174.80-12.72L174.80-12.72L174.80-12.72Q174.64-9.84 174.64-8.16L174.64-8.16L174.64-8.16Q174.64-4.56 176.28-2.84L176.28-2.84L176.28-2.84Q177.92-1.12 180.40-1.12L180.40-1.12L180.40-1.12Q182.88-1.12 184.92-2.08L184.92-2.08L184.92-2.08Q186.96-3.04 188.16-4.36L188.16-4.36L188.16-4.36Q189.36-5.68 190.24-7.12L190.24-7.12L190.24-7.12Q191.84-9.76 191.84-10.48L191.84-10.48L193.28-9.84L193.28-9.84Q193.04-8.56 191.84-6.44L191.84-6.44L191.84-6.44Q190.64-4.32 189.20-2.96L189.20-2.96L189.20-2.96Q187.76-1.60 184.96-0.44L184.96-0.44L184.96-0.44Q182.16 0.72 178.72 0.72L178.72 0.72L178.72 0.72Q172.24 0.72 168.92-2.36L168.92-2.36L168.92-2.36Q165.60-5.44 165.60-10.80L165.60-10.80L165.60-10.80Q165.60-20.32 170.32-25.72L170.32-25.72L170.32-25.72Q175.04-31.12 182.96-31.12zM191.12-23.04L191.12-23.04Q191.12-25.68 189.56-27.40L189.56-27.40L189.56-27.40Q188-29.12 184.92-29.12L184.92-29.12L184.92-29.12Q181.84-29.12 178.92-25.44L178.92-25.44L178.92-25.44Q176-21.76 175.04-14.56L175.04-14.56L175.04-14.56Q191.12-14.64 191.12-23.04L191.12-23.04" fill="#00599e" stroke="none" stroke-width="none" transform="translate(-227.51997756958008,21.404364835565737)" style="fill: rgb(0, 89, 158);"></path></g><g class="path" style="transform: matrix(1, 0, 0, 1, 0, 0); transform-origin: -15.04px 5.84437px; animation: 16.6667s linear -5s infinite normal forwards running tremble-7c2820ce-8870-4615-83a6-aca02bae78dd;"><path d="M199.12-27.28L197.92-28.24L197.92-28.24Q200.32-31.12 203.96-31.12L203.96-31.12L203.96-31.12Q207.60-31.12 209.60-29.28L209.60-29.28L209.60-29.28Q211.60-27.44 211.60-24.08L211.60-24.08L211.60-23.60L211.60-23.60Q215.20-31.12 220.96-31.12L220.96-31.12L220.96-31.12Q227.12-31.12 227.12-24.72L227.12-24.72L227.12-24.72Q227.12-22.08 225.36-19.12L225.36-19.12L225.36-19.12Q223.60-16.16 221.84-13.48L221.84-13.48L221.84-13.48Q220.08-10.80 220.08-8.72L220.08-8.72L218.16-8.72L218.16-8.72Q218.16-11.68 221.60-16.72L221.60-16.72L221.60-16.72Q225.04-21.76 225.04-24.52L225.04-24.52L225.04-24.52Q225.04-27.28 223.96-28.28L223.96-28.28L223.96-28.28Q222.88-29.28 220.76-29.28L220.76-29.28L220.76-29.28Q218.64-29.28 216.60-27.44L216.60-27.44L216.60-27.44Q214.56-25.60 213.20-22.80L213.20-22.80L213.20-22.80Q211.04-18.64 210.32-16L210.32-16L210.32-15.92L207.44 0L197.84 0L203.12-29.52L203.12-29.52Q200.72-29.28 199.12-27.28L199.12-27.28" fill="#00599e" stroke="none" stroke-width="none" transform="translate(-227.51997756958008,21.404364835565737)" style="fill: rgb(231, 120, 23);"></path></g><g class="path" style="transform: matrix(1, 0, 0, 1, 0, 0); transform-origin: 38.24px 3.16436px; animation: 16.6667s linear -4s infinite normal forwards running tremble-7c2820ce-8870-4615-83a6-aca02bae78dd;"><path d="M230.64-24.80L230.64-24.80L230.64-24.80Q230.64-36.24 242.60-42.48L242.60-42.48L242.60-42.48Q254.56-48.72 276.40-48.72L276.40-48.72L276.40-48.72Q288.80-48.72 294.56-44.96L294.56-44.96L294.56-44.96Q300.32-41.20 300.32-34.72L300.32-34.72L300.32-34.72Q300.32-29.28 296.60-24.96L296.60-24.96L296.60-24.96Q292.88-20.64 286.16-18.56L286.16-18.56L286.16-18.56Q300.88-16.88 300.88-8.24L300.88-8.24L300.88-8.24Q300.88-3.76 297.72-0.76L297.72-0.76L297.72-0.76Q294.56 2.24 289.36 3.52L289.36 3.52L289.36 3.52Q280.56 5.68 271.28 5.68L271.28 5.68L271.28 4.08L271.28 4.08Q273.12 4.24 274.80 4.24L274.80 4.24L274.80 4.24Q282.80 4.24 286.88 1.44L286.88 1.44L286.88 1.44Q291.84-2 291.84-7.60L291.84-7.60L291.84-7.60Q291.84-10.80 289.88-13.32L289.88-13.32L289.88-13.32Q287.92-15.84 286-16.80L286-16.80L284-17.76L284-17.76Q281.44-17.20 278.24-17.20L278.24-17.20L278.24-18.80L278.24-18.80Q285.92-18.80 292.24-23.20L292.24-23.20L292.24-23.20Q298.56-27.60 298.56-34.72L298.56-34.72L298.56-34.72Q298.56-40.64 293-43.88L293-43.88L293-43.88Q287.44-47.12 277.12-47.20L277.12-47.20L277.12-47.20Q272.72-17.44 270.40-6.24L270.40-6.24L270.40-6.24Q268.80 2.40 262.40 7.32L262.40 7.32L262.40 7.32Q256 12.24 248.72 12.24L248.72 12.24L248.72 10.72L248.72 10.72Q251.84 10.48 253.32 10.04L253.32 10.04L253.32 10.04Q254.80 9.60 255.84 8.20L255.84 8.20L255.84 8.20Q256.88 6.80 257.36 4.88L257.36 4.88L257.36 4.88Q258.24 0.96 258.72-2.56L258.72-2.56L266.40-46.80L266.40-46.80Q250-45.44 241.08-39.72L241.08-39.72L241.08-39.72Q232.16-34 232.16-24.80L232.16-24.80L232.16-24.80Q232.16-20.64 235.04-17.76L235.04-17.76L235.04-17.76Q237.04-15.84 240.32-14.84L240.32-14.84L240.32-14.84Q243.60-13.84 245.72-13.72L245.72-13.72L245.72-13.72Q247.84-13.60 248-13.76L248-13.76L248-12.08L248-12.08Q238.56-12.08 234.00-16.56L234.00-16.56L234.00-16.56Q230.64-19.68 230.64-24.80" fill="#00599e" stroke="none" stroke-width="none" transform="translate(-227.51997756958008,21.404364835565737)" style="fill: rgb(0, 89, 158);"></path></g><g class="path" style="transform: matrix(1, 0, 0, 1, 0, 0); transform-origin: 95.36px 6.20436px; animation: 16.6667s linear -3s infinite normal forwards running tremble-7c2820ce-8870-4615-83a6-aca02bae78dd;"><path d="M319.76 0.72L319.76 0.72Q313.60 0.72 310.40-2.36L310.40-2.36L310.40-2.36Q307.20-5.44 307.20-10.12L307.20-10.12L307.20-10.12Q307.20-14.80 308.04-18.12L308.04-18.12L308.04-18.12Q308.88-21.44 310.80-24.52L310.80-24.52L310.80-24.52Q312.72-27.60 316.60-29.36L316.60-29.36L316.60-29.36Q320.48-31.12 326.28-31.12L326.28-31.12L326.28-31.12Q332.08-31.12 335.32-28.04L335.32-28.04L335.32-28.04Q338.56-24.96 338.56-19.60L338.56-19.60L338.56-19.60Q338.56-10.48 333.72-4.88L333.72-4.88L333.72-4.88Q328.88 0.72 319.76 0.72L319.76 0.72zM316.24-7.52L316.24-7.52L316.24-7.52Q316.24-1.12 319.96-1.12L319.96-1.12L319.96-1.12Q323.68-1.12 326.60-7.56L326.60-7.56L326.60-7.56Q329.52-14 329.52-22.88L329.52-22.88L329.52-22.88Q329.52-29.60 325.88-29.60L325.88-29.60L325.88-29.60Q322.24-29.60 319.24-23.48L319.24-23.48L319.24-23.48Q316.24-17.36 316.24-7.52" fill="#00599e" stroke="none" stroke-width="none" transform="translate(-227.51997756958008,21.404364835565737)" style="fill: rgb(231, 120, 23);"></path></g><g class="path" style="transform: matrix(1, 0, 0, 1, 0, 0); transform-origin: 132.24px 6.20436px; animation: 16.6667s linear -2s infinite normal forwards running tremble-7c2820ce-8870-4615-83a6-aca02bae78dd;"><path d="M370.72 0.72L370.72 0.72L370.72 0.72Q363.68 0.72 363.04-5.44L363.04-5.44L363.04-5.44Q359.52 0.72 354.16 0.72L354.16 0.72L354.16 0.72Q348.80 0.72 345.64-2.52L345.64-2.52L345.64-2.52Q342.48-5.76 342.48-11.60L342.48-11.60L342.48-11.60Q342.48-20.72 346.96-25.92L346.96-25.92L346.96-25.92Q351.44-31.12 358.56-31.12L358.56-31.12L358.56-31.12Q364.40-31.12 366.32-25.60L366.32-25.60L366.32-25.60Q366.72-28 367.20-30.40L367.20-30.40L367.20-30.40Q373.12-30.40 376-30.88L376-30.88L377.04-31.12L371.52-0.88L371.52-0.88Q373.92-1.12 375.52-3.12L375.52-3.12L376.72-2.16L376.72-2.16Q374.32 0.72 370.72 0.72zM351.52-7.52L351.52-7.52Q351.52-3.92 352.44-2.52L352.44-2.52L352.44-2.52Q353.36-1.12 355.28-1.12L355.28-1.12L355.28-1.12Q357.20-1.12 359.20-3.20L359.20-3.20L359.20-3.20Q361.84-5.92 363.44-10.08L363.44-10.08L363.44-10.08Q363.68-11.12 364.36-15.08L364.36-15.08L364.36-15.08Q365.04-19.04 365.52-21.60L365.52-21.60L365.52-21.60Q365.28-24.64 363.84-26.88L363.84-26.88L363.84-26.88Q362.40-29.12 360.24-29.12L360.24-29.12L360.24-29.12Q356.32-29.12 353.92-22.12L353.92-22.12L353.92-22.12Q351.52-15.12 351.52-7.52L351.52-7.52" fill="#00599e" stroke="none" stroke-width="none" transform="translate(-227.51997756958008,21.404364835565737)" style="fill: rgb(0, 89, 158);"></path></g><g class="path" style="transform: matrix(1, 0, 0, 1, 0, 0); transform-origin: 168.72px 5.84437px; animation: 16.6667s linear -1s infinite normal forwards running tremble-7c2820ce-8870-4615-83a6-aca02bae78dd;"><path d="M382.88-27.28L381.68-28.24L381.68-28.24Q384.08-31.12 387.72-31.12L387.72-31.12L387.72-31.12Q391.36-31.12 393.36-29.28L393.36-29.28L393.36-29.28Q395.36-27.44 395.36-24.08L395.36-24.08L395.36-23.60L395.36-23.60Q398.96-31.12 404.72-31.12L404.72-31.12L404.72-31.12Q410.88-31.12 410.88-24.72L410.88-24.72L410.88-24.72Q410.88-22.08 409.12-19.12L409.12-19.12L409.12-19.12Q407.36-16.16 405.60-13.48L405.60-13.48L405.60-13.48Q403.84-10.80 403.84-8.72L403.84-8.72L401.92-8.72L401.92-8.72Q401.92-11.68 405.36-16.72L405.36-16.72L405.36-16.72Q408.80-21.76 408.80-24.52L408.80-24.52L408.80-24.52Q408.80-27.28 407.72-28.28L407.72-28.28L407.72-28.28Q406.64-29.28 404.52-29.28L404.52-29.28L404.52-29.28Q402.40-29.28 400.36-27.44L400.36-27.44L400.36-27.44Q398.32-25.60 396.96-22.80L396.96-22.80L396.96-22.80Q394.80-18.64 394.08-16L394.08-16L394.08-15.92L391.20 0L381.60 0L386.88-29.52L386.88-29.52Q384.48-29.28 382.88-27.28L382.88-27.28" fill="#00599e" stroke="none" stroke-width="none" transform="translate(-227.51997756958008,21.404364835565737)" style="fill: rgb(231, 120, 23);"></path></g><g class="path" style="transform: matrix(1, 0, 0, 1, 0, 0); transform-origin: 203.16px -4.15563px; animation: 16.6667s linear 0s infinite normal forwards running tremble-7c2820ce-8870-4615-83a6-aca02bae78dd;"><path d="M440.32 0.72L440.32 0.72L440.32 0.72Q433.28 0.72 432.64-5.28L432.64-5.28L432.64-5.28Q429.12 0.72 423.68 0.72L423.68 0.72L423.68 0.72Q418.24 0.72 415.36-2.36L415.36-2.36L415.36-2.36Q412.48-5.44 412.48-10.80L412.48-10.80L412.48-10.80Q412.48-20.24 416.96-25.68L416.96-25.68L416.96-25.68Q421.44-31.12 428.56-31.12L428.56-31.12L428.56-31.12Q432.64-31.12 434.88-28.64L434.88-28.64L434.88-28.64Q435.84-27.36 436.08-26.72L436.08-26.72L440.40-50.24L440.40-50.24Q438.00-50 436.40-48L436.40-48L435.20-48.96L435.20-48.96Q437.60-51.84 441.24-51.84L441.24-51.84L441.24-51.84Q444.88-51.84 446.88-50L446.88-50L446.88-50Q448.88-48.16 448.88-44.80L448.88-44.80L448.88-44.80Q448.88-44.16 448.72-42.72L448.72-42.72L448.72-42.72Q444.80-20.72 441.12-0.88L441.12-0.88L441.12-0.88Q443.52-1.12 445.12-3.12L445.12-3.12L446.32-2.16L446.32-2.16Q443.92 0.72 440.32 0.72zM421.52-7.52L421.52-7.52Q421.52-3.84 422.28-2.48L422.28-2.48L422.28-2.48Q423.04-1.12 424.68-1.12L424.68-1.12L424.68-1.12Q426.32-1.12 427.84-2.24L427.84-2.24L427.84-2.24Q429.36-3.36 430.40-5.12L430.40-5.12L430.40-5.12Q432.32-8.08 433.12-10.16L433.12-10.16L435.44-22.80L435.44-22.80Q435.28-25.36 433.76-27.48L433.76-27.48L433.76-27.48Q432.24-29.60 428.56-29.60L428.56-29.60L428.56-29.60Q426.00-29.60 423.76-22.08L423.76-22.08L423.76-22.08Q421.52-14.56 421.52-7.52L421.52-7.52" fill="#00599e" stroke="none" stroke-width="none" transform="translate(-227.51997756958008,21.404364835565737)" style="fill: rgb(0, 89, 158);"></path></g></g>
</g>
</g>
<style id="tremble-7c2820ce-8870-4615-83a6-aca02bae78dd" data-anikit="">@keyframes tremble-7c2820ce-8870-4615-83a6-aca02bae78dd {
  0% { transform: translate(0px,0px) rotate(0deg) scale(1) }
  3.33333% { transform: translate(-0.18923px,1.45485px) rotate(0deg) scale(1) }
  6.66667% { transform: translate(-0.84296px,-1.32524px) rotate(0deg) scale(1) }
  10% { transform: translate(0.67971px,1.00422px) rotate(0deg) scale(1) }
  13.33333% { transform: translate(-0.5056px,0.83616px) rotate(0deg) scale(1) }
  16.66667% { transform: translate(1.31368px,-0.51401px) rotate(0deg) scale(1) }
  20% { transform: translate(-1.21184px,1.49193px) rotate(0deg) scale(1) }
  23.33333% { transform: translate(1.09065px,-0.21259px) rotate(0deg) scale(1) }
  26.66667% { transform: translate(-1.49916px,0.56159px) rotate(0deg) scale(1) }
  30% { transform: translate(1.48086px,1.21228px) rotate(0deg) scale(1) }
  33.33333% { transform: translate(-1.43889px,-1.152px) rotate(0deg) scale(1) }
  36.66667% { transform: translate(1.35914px,1.34835px) rotate(0deg) scale(1) }
  40% { transform: translate(-1.42834px,0.3091px) rotate(0deg) scale(1) }
  43.33333% { transform: translate(1.47472px,-1.49889px) rotate(0deg) scale(1) }
  46.66667% { transform: translate(-0.92402px,1.4416px) rotate(0deg) scale(1) }
  50% { transform: translate(1.0657px,-0.75306px) rotate(0deg) scale(1) }
  53.33333% { transform: translate(-1.19035px,-1.07484px) rotate(0deg) scale(1) }
  56.66667% { transform: translate(0.28828px,0.79337px) rotate(0deg) scale(1) }
  60% { transform: translate(-0.47167px,-1.42789px) rotate(0deg) scale(1) }
  63.33333% { transform: translate(0.64753px,-0.09795px) rotate(0deg) scale(1) }
  66.66667% { transform: translate(0.41006px,-0.26292px) rotate(0deg) scale(1) }
  70% { transform: translate(-0.22477px,-1.3683px) rotate(0deg) scale(1) }
  73.33333% { transform: translate(0.03588px,0.92931px) rotate(0deg) scale(1) }
  76.66667% { transform: translate(-1.01937px,-1.18398px) rotate(0deg) scale(1) }
  80% { transform: translate(0.8724px,-0.60494px) rotate(0deg) scale(1) }
  83.33333% { transform: translate(-0.71151px,1.4786px) rotate(0deg) scale(1) }
  86.66667% { transform: translate(1.40734px,-1.49607px) rotate(0deg) scale(1) }
  90% { transform: translate(-1.33062px,0.46957px) rotate(0deg) scale(1) }
  93.33333% { transform: translate(1.23264px,1.26738px) rotate(0deg) scale(1) }
  96.66667% { transform: translate(-1.48975px,-1.03867px) rotate(0deg) scale(1) }
  100% { transform: translate(0,0) rotate(0) scale(1) }
}</style></svg>